<svg xmlns="http://www.w3.org/2000/svg" id="Layer_1" viewBox="0 0 531.3 226.9">
  <style>
    .st0{fill:#FFFFFF;} .st1{fill:#97C0E6;} .st2{fill:#4A5BA8;} .st3{fill:#EBB5D4;}
  </style>
  <g id="title-vs-word-circle">
    <g id="title-vs-circle">
      <path d="M255.4 120.3h-38c-28.6 0-51.9-23.2-51.9-51.9V56.9c0-28.6 23.2-51.9 51.9-51.9h38c28.6 0 51.9 23.2 51.9 51.9v11.5c0 28.6-23.3 51.9-51.9 51.9z" class="st0"/>
      <path d="M255.4 125.3h-38c-31.4 0-56.9-25.5-56.9-56.9V56.9C160.5 25.5 186 0 217.4 0h38c31.4 0 56.9 25.5 56.9 56.9v11.5c0 31.3-25.6 56.9-56.9 56.9zM217.4 10c-25.8 0-46.9 21-46.9 46.9v11.5c0 25.8 21 46.9 46.9 46.9h38c25.8 0 46.9-21 46.9-46.9V56.9c0-25.8-21-46.9-46.9-46.9h-38z" class="st1"/>
    </g>
    <path id="title-vs-word" d="M220.3 95.6h-13.1l-18-52.6h-6.7V33h25.3v10h-6l12.4 36.1L227.4 43h-6V33H246v10h-6.7l-19 52.6zm37.9-18.5c0 5.2 3.5 9.6 9.3 9.6 5.2 0 9.2-3.2 9.2-8.6 0-6.2-5.9-7.8-10.7-9.2-4.6-1.3-8.4-2.5-12.3-5.3-4.5-3.3-6.8-8.1-6.8-13.7 0-10.3 8.9-18.1 18.9-18.1 4.3 0 8.5 1.4 11.1 4.8v-3.5h9.1v16.8h-10.7c-.1-4.6-3.5-8.1-8.1-8.1s-8.5 2.9-8.5 7.8c0 6.1 5.4 7.4 10.3 8.9 4.8 1.3 9.4 2.6 13.4 5.7 4 3.2 6.2 7.9 6.2 13.1 0 11.3-8.4 19.6-19.8 19.6-4.8 0-9-1.7-12-5.3v4.1h-9.5V77.1h10.9z" class="st2"/>
  </g>
  <g id="title-brain-word">
    <path d="M97.4 126.8c6.8 24.5-14.2 33.8-14.2 33.8 20.6 6.2 20.6 25 20.6 25 2.2 37.1-44.6 38.7-44.6 38.7-38 2.2-48.4-19.7-48.4-19.7-6.8-11.5-8.1-25.7-8.1-37.1 0-23.3 6.8-38.1 6.8-38.1 12-30.7 50-25.5 50-25.5 31.9.9 37.9 22.9 37.9 22.9zm-50.6 17c0 3.5 1.7 7.3 6.8 7.3 4.4 0 6.8-3.7 6.8-7.3 0-3.4-2.4-6.4-6.8-6.4-3.8 0-6.8 2.7-6.8 6.4zm1.5 41.2c.3 4.7 3 6.2 6.8 6.2 3.7 0 6.6-2.4 6.6-6.2 0-3.5-2.4-7.1-6.6-7.1-3.9 0-7.1 3.6-6.8 7.1z" class="st3"/>
    <path d="M53.6 224.8c-16.7 0-27.4-4.9-33.6-9.3-7.4-5.2-10-10.7-10.1-10.9-5.5-9.3-8.2-21.5-8.2-37.3 0-23.1 6.7-38.2 6.8-38.4 12-30.7 50.1-25.8 50.5-25.8 31.8 1.2 38.3 23.3 38.4 23.5 5.9 21.3-9.1 31.4-13.4 33.8 19.6 6.6 19.8 24.9 19.8 25.1.6 9.6-2.1 17.8-7.9 24.2-12.8 14-36.9 15-37.1 15-1.8.1-3.5.1-5.2.1zm-.7-121c-11.1 0-34.6 2.8-43.5 25.5-.1.2-6.7 15.1-6.7 38 0 15.6 2.6 27.7 8 36.9.1.3 10.8 21.6 48 19.5.2 0 23.9-.9 36.4-14.7 5.6-6.2 8.2-14.1 7.7-23.5 0-.2-.3-18.5-20.2-24.5l-1.3-.4 1.2-.5c.8-.4 20.5-9.4 13.9-33.2-.1-.2-6.4-21.6-37.5-22.8 0 0-2.4-.3-6-.3zm1.7 87.9c-4.5 0-6.9-2.3-7.2-6.7-.2-1.8.5-3.7 1.8-5.2 1.4-1.6 3.4-2.5 5.4-2.5 4.6 0 7.1 3.9 7.1 7.6 0 4.1-2.9 6.8-7.1 6.8zm0-13.3c-1.7 0-3.4.8-4.7 2.1-1.2 1.3-1.7 2.9-1.6 4.4.3 3.9 2.3 5.8 6.3 5.8 3.6 0 6.1-2.3 6.1-5.7 0-3.2-2.2-6.6-6.1-6.6zm-1.5-26.8c-5.3 0-7.3-4-7.3-7.8 0-3.9 3.2-6.9 7.3-6.9 5 0 7.3 3.6 7.3 6.9-.1 3.8-2.6 7.8-7.3 7.8zm0-13.7c-3.6 0-6.3 2.5-6.3 5.9 0 2 .6 6.8 6.3 6.8 4.1 0 6.3-3.5 6.3-6.8-.1-2.8-2-5.9-6.3-5.9z" class="st2"/>
    <path d="M197.7 174.7c32.7 27.9 7.9 46.4 7.9 46.4-25.3 20.3-44.6-24.5-45.4-26.7 4.4 29-18.7 31.1-18.7 31.1-22.6 2.9-28.5-20.3-28.5-20.3-11.3-39.2-1.2-67.5-1.2-67.5 9.6-37 48.4-33.3 48.4-33.3 39.7.2 45.7 32.1 45.7 32.1 4.5 24.2-8.2 38.2-8.2 38.2zm-44.2-19.4c.3 4.7 3 6.2 6.8 6.2s6.6-2.4 6.6-6.2c0-3.5-2.4-7.1-6.6-7.1-3.9 0-7.1 3.5-6.8 7.1z" class="st3"/>
    <path d="M191.9 226.9c-1.6 0-3.2-.2-4.8-.6-13.4-3.6-23.1-21.4-26.5-28.6.7 8.4-.9 15.1-4.8 20.2-5.8 7.3-14.4 8.2-14.7 8.2-1.3.2-2.6.2-3.8.2-19.7 0-25.2-20.7-25.2-20.9-11.2-38.9-1.3-67.5-1.2-67.8 9.6-36.9 48.6-33.6 49-33.6 39.6.2 46.1 32.2 46.2 32.5 4 21.9-6.1 35.7-8.1 38.2 11.4 9.8 17 19.5 16.7 29-.3 11.1-9.1 17.8-9.2 17.9-4.5 3.5-9 5.3-13.6 5.3zM158.6 190l1.6 4.3c.1.3 10.9 26.6 27.2 31 5.9 1.6 11.7.1 17.5-4.5.1-.1 8.5-6.5 8.8-17.1.3-9.2-5.4-18.8-16.8-28.5l-.4-.3.3-.4s3.2-3.5 5.7-9.9c2.4-5.9 4.7-15.5 2.4-27.8-.1-.3-6.5-31.5-45.3-31.7-.4 0-38.6-3.2-48 32.9-.1.3-10 28.7 1.2 67.3 0 .1 1.5 5.8 5.7 11.1 5.6 7 13.1 10 22.3 8.8.1 0 8.6-.8 14.1-7.8 4.3-5.4 5.7-13 4.2-22.6l-.5-4.8zm1.2-28c-4.5 0-6.9-2.3-7.3-6.7-.2-1.8.5-3.7 1.9-5.2 1.4-1.6 3.4-2.5 5.4-2.5 4.6 0 7.1 3.9 7.1 7.6 0 4.1-2.9 6.8-7.1 6.8zm0-13.3c-1.7 0-3.4.8-4.7 2.1-1.2 1.3-1.7 2.9-1.6 4.4.3 3.9 2.3 5.8 6.3 5.8 3.6 0 6.1-2.3 6.1-5.7 0-3.2-2.2-6.6-6.1-6.6z" class="st2"/>
    <path d="M291.6 220.8c-13-7.8-16.2-22.1-16.5-25.5-.5 3.4-3.5 17.7-16.5 25.5-11.5 6.8-25.5 1.9-25.5 1.9-17.7-6.2-15.2-31.9-15.2-31.9 1.2-32.1 13-53.3 23-67.5 14.7-21.4 33.1-20.9 34.3-20.9s19.6-.5 34.4 20.9c9.8 14.2 21.6 35.4 22.8 67.5 0 0 2.7 25.7-15.2 31.9-.1-.1-14.1 4.8-25.6-1.9zM269 169c.3 4.7 3 6.2 6.8 6.2 3.7 0 6.6-2.4 6.6-6.2 0-3.5-2.4-7.1-6.6-7.1-4 0-7.2 3.5-6.8 7.1z" class="st3"/>
    <path d="M306.3 224.9c-4.5 0-9.7-.8-14.4-3.6-10.5-6.3-14.9-17.2-16.3-23.2-1.3 5.4-5.2 16.6-16.3 23.2-11.5 6.8-25.8 1.9-25.9 1.9-17.9-6.3-15.5-32.2-15.5-32.4 1.2-33.1 13.7-54.5 23-67.8 6.1-8.9 13.5-15.1 22.1-18.5 5.8-2.3 10.3-2.6 12.5-2.6l.2.5v-.5c2.2 0 6.8.3 12.6 2.6 8.6 3.4 16 9.6 22.2 18.5 9.2 13.4 21.7 35 22.9 67.8 0 .2 2.5 26.1-15.5 32.4-.2 0-5.2 1.7-11.6 1.7zm-13.9-4.5c11.2 6.6 24.9 1.9 25.1 1.8 17.3-6 14.9-31.1 14.9-31.4-1.2-32.6-13.5-54-22.7-67.3-2.4-3.5-15.3-20.7-33.8-20.7h-.6c-18.5 0-31.2 17.2-33.6 20.7-9.2 13.2-21.7 34.4-22.9 67.3 0 .3-2.3 25.4 14.9 31.4.1 0 13.9 4.7 25.1-1.8 13.1-7.8 15.9-22.3 16.3-25.1l.6-4 .4 4c.4 4.5 4.2 17.9 16.3 25.1zm-16.2-44.7c-4.5 0-6.9-2.3-7.3-6.7-.2-1.8.5-3.7 1.8-5.2 1.4-1.6 3.4-2.5 5.4-2.5 4.6 0 7.1 3.9 7.1 7.6.1 4.1-2.8 6.8-7 6.8zm0-13.3c-1.7 0-3.4.8-4.7 2.1-1.2 1.3-1.7 2.9-1.6 4.4.3 3.9 2.3 5.8 6.3 5.8 3.6 0 6.1-2.3 6.1-5.7 0-3.2-2.1-6.6-6.1-6.6z" class="st2"/>
    <path d="M336.8 142.8s1.2-37.5 30.4-37.6c0 0 23.8 0 27.9 32.9 3.7 31.4 0 58.4 0 58.4s-2.5 29.4-27.9 29.2c-27.9-.3-29.7-35.8-29.7-35.8-2.7-18.4-.7-47.1-.7-47.1z" class="st3"/>
    <path d="M367 226.2h-.2c-28-.3-30.2-35.9-30.2-36.3-2.7-18.1-.7-46.5-.7-47.1 0-.8 1.7-37.9 30.9-38.1.2 0 24.3.4 28.4 33.4 3.7 31.1 0 58.3 0 58.5-.1.2-3 29.6-28.2 29.6zm-.3-120.5c-28.4.2-29.9 36.8-29.9 37.2 0 .3-2 28.9.7 47 0 .4 2.2 35 29.2 35.4h.2c24.4 0 27.1-28.5 27.1-28.7 0-.3 3.7-27.3 0-58.3-2.1-16.8-9.4-24.7-15.2-28.4-6.1-4.2-12-4.2-12.1-4.2z" class="st2"/>
    <path d="M437.4 103.6c34.8-1.5 37.8 38 38.1 43.9-.2-45.4 26.8-42.7 26.8-42.7 21.3-.7 24.1 19.2 24.1 19.2 7.4 39-1.4 75.1-1.4 75.1-6.1 28.7-27 25.3-27 25.3-34.8.7-41.2-44.6-41.7-49.8 2.7 54.9-27.2 49.8-27.2 49.8-19.2.5-23.3-18.7-23.3-18.7-8.4-35.4 0-74.8 0-74.8s5.1-26.1 31.6-27.3z" class="st3"/>
    <path d="M430.9 225.1c-1.2 0-2-.1-2.1-.1h-.8c-18.7 0-22.9-18.9-22.9-19.1-8.4-35.1-.1-74.6 0-75 0-.3 5.3-26.6 31.9-27.7 27.9-1.2 35.7 23.8 37.9 37.3.9-13.9 4.8-24 11.5-30.2 7.3-6.7 15.3-6 15.7-5.9 21.4-.7 24.6 19.5 24.6 19.7 7.4 38.6-1.3 74.9-1.4 75.3-6.1 28.8-27.4 25.7-27.6 25.7h-.8c-27.7 0-37.2-29.5-40.2-43.3 0 18.2-4 31-11.9 37.9-5.3 4.7-11 5.4-13.9 5.4zm66.8-1.1c.1 0 5.3.8 11.1-1.9 7.7-3.5 13-11.5 15.5-23 .1-.4 8.7-36.5 1.3-74.9-.1-.8-3-18.9-22.6-18.9h-1c-.1 0-8-.7-15 5.7-7.6 6.9-11.4 19.2-11.4 36.5h-1c-.4-7.5-4.2-44.9-37.6-43.4-25.8 1.1-30.9 26.7-30.9 26.9-.1.4-8.3 39.6 0 74.6.2.8 4.2 18.9 22.8 18.4.2 0 8.2 1.3 15.3-5.1 8.6-7.6 12.4-22.5 11.3-44.2l1-.1c.1.6 5.3 50.1 41.2 49.4z" class="st2"/>
  </g>
  <g id="title-left-word">
    <path d="M8 85.7h6.8V43.1H8v-10h25.5v10h-6.7V85h15v-8.2h11.9v18.9H8v-10z" class="st0"/>
    <path d="M54.2 96.1H7.5v-11h6.8V43.6H7.5v-11H34v11h-6.7v40.9h14v-8.2h12.9v19.8zm-45.7-1h44.7V77.2h-11v8.2h-16V42.6H33v-9H8.5v9h6.8v43.6H8.5v8.9z" class="st2"/>
    <path d="M100.4 81.9c-3.7 8.9-12.4 15-22.1 15-13.7 0-24.6-10.7-24.6-24.4 0-13.8 10.4-25 24.4-25 6.5 0 13 2.9 17.5 7.5 4.6 4.9 6.6 10.9 6.6 17.5l-.4 3.8H63.9c1.4 6.5 7.4 11.2 14 11.2 4.6 0 8.7-1.8 11.3-5.6h11.2zM92.2 68c-1.8-6.7-7.8-11-14.7-11-6.3 0-12.4 4.9-13.7 11h28.4z" class="st0"/>
    <path d="M78.3 97.4c-14.1 0-25.1-11-25.1-24.9C53.2 58.2 64.1 47 78.1 47c6.5 0 13.2 2.9 17.9 7.7 4.5 4.7 6.7 10.7 6.7 17.9l-.4 4.3H64.5c1.6 6 7.1 10.2 13.4 10.2 4.7 0 8.5-1.9 10.9-5.4l.1-.2H101l-.3.7C97 91.4 88.1 97.4 78.3 97.4zM78 47.9c-13.4 0-23.9 10.8-23.9 24.5 0 13.4 10.6 23.9 24.1 23.9 9.2 0 17.5-5.5 21.3-14h-10c-2.6 3.7-6.6 5.6-11.6 5.6-7 0-13.1-4.9-14.5-11.6l-.1-.6h38l.3-3.3c0-6.9-2.1-12.6-6.4-17.1-4.6-4.6-11-7.4-17.2-7.4zm14.9 20.6H63.2l.1-.6c1.4-6.4 7.6-11.4 14.2-11.4 7.2 0 13.3 4.6 15.2 11.4l.2.6zm-28.4-1h27.1c-1.9-6-7.5-10-14.1-10-5.8 0-11.5 4.4-13 10z" class="st2"/>
    <path d="M118.9 85.7h6.1v10h-22.9v-10h6V58.8h-6v-10h6c-.1-11.7 6.4-17.4 18.1-17.4V41c-5.4-.1-7.7 2.9-7.4 7.9h6.1v10h-6.1v26.8z" class="st0"/>
    <path d="M125.6 96.1h-23.9v-11h6V59.3h-6v-11h6c0-5.5 1.5-9.7 4.5-12.7 3.1-3.2 7.9-4.8 14.2-4.8h.5v10.6h-.5c-2.4 0-4.2.5-5.4 1.7-1.1 1.1-1.6 2.9-1.6 5.1h6.2v11h-6.1V85h6.1v11.1zm-22.9-1h21.9v-9h-6.1V58.3h6.1v-9h-6.1v-.5c-.1-2.8.5-4.9 1.9-6.4 1.3-1.3 3.1-2 5.6-2v-8.5c-5.7.1-10.1 1.6-13 4.5-2.8 2.8-4.2 7-4.2 12.5v.5h-6.1v9h6v27.8h-6v8.9z" class="st2"/>
    <path d="M145.2 85.7h8.5v10h-19.2V58.8h-7.4v-10h7.4V33.1h10.7v15.8h8v10h-8v26.8z" class="st0"/>
    <path d="M154.2 96.1H134V59.3h-7.4v-11h7.4V32.6h11.7v15.8h8v11h-8v25.8h8.5v10.9zm-19.2-1h18.2v-9h-8.5V58.3h8v-9h-8V33.6H135v15.8h-7.4v9h7.4v36.7z" class="st2"/>
  </g>
  <g id="title-right-word">
    <path d="M323.5 43.1h-6.7v-10h28c6.1 0 11.5.6 16.4 4.8 4.9 4.2 7.4 10.1 7.4 16.5 0 9-6 18.1-15.5 18.8l9.7 12.4h7.1v10h-14.6l-19.8-28.1v18.1h5.3v10h-24v-10h6.7V43.1zm18.4 23.3c3.7 0 7.3-.2 10.4-2.5 2.8-2.2 4.3-5.5 4.3-9 0-3.3-1.4-6.7-4.1-8.9-2.6-2.2-5.5-2.2-8.9-2.2h-8.2v22.6h6.5z" class="st0"/>
    <path d="M370.4 96.1H355L336 69v16.1h5.3v11h-25v-11h6.7V43.6h-6.7v-11h28.5c6.8 0 11.9.8 16.7 4.9 4.9 4.2 7.6 10.2 7.6 16.9 0 8.6-5.6 17.9-15.1 19.2l9 11.5h7.4v11zm-14.9-1h13.9v-9h-6.8l-10.4-13.4.9-.1c9.4-.8 15.1-9.9 15.1-18.3 0-6.4-2.6-12.1-7.3-16.1-4.6-3.9-9.5-4.7-16.1-4.7h-27.5v9h6.7v43.6h-6.7v9h23v-9H335V43.3h8.7c3.4 0 6.4 0 9.2 2.3 2.7 2.1 4.3 5.5 4.3 9.2 0 3.8-1.6 7.2-4.5 9.4-3.3 2.4-6.9 2.6-10.7 2.6h-6.3l19.8 28.3zm-19.6-29.2h6c3.6 0 7.1-.2 10.1-2.4 2.6-2 4.1-5.2 4.1-8.6 0-3.4-1.5-6.6-3.9-8.5-2.5-2.1-5.3-2.1-8.5-2.1H336v21.6z" class="st2"/>
    <path d="M386.8 85.7h6v10h-22.9v-10h6.1V58.8h-6v-10h16.7v36.9zm0-41.3h-10.7V33.1h10.7v11.3z" class="st0"/>
    <path d="M393.3 96.1h-23.9v-11h6.1V59.3h-6v-11h17.7v36.8h6v11zm-22.9-1h21.9v-9h-6V49.3h-15.7v9h6v27.8h-6.1v9zm16.9-50.2h-11.7V32.6h11.7v12.3zm-10.7-1h9.7V33.6h-9.7v10.3z" class="st2"/>
    <path d="M408 99.7c1.8 3.9 6.4 5.8 10.5 5.8 3.7 0 7.5-1.6 9.9-4.3 3-3.5 3.2-6.5 3.2-10.9v-1.8c-3.3 5.4-8.7 7.8-15 7.8-13.3 0-23.7-11.1-23.7-24.2 0-12.9 10.8-24.1 23.7-24.1 6.3 0 12.1 2.2 15.6 7.6v-6.8h15.9v10h-6v30.6c0 7.2-.5 12.8-5.9 18.1-5 4.9-11.4 7.1-18.3 7.1-9.7 0-19.9-4.8-22.3-15H408zm10.2-13.3c8.1 0 14.2-6.6 14.2-14.5 0-7.8-6.5-14.1-14.3-14.1-7.8 0-14.2 6.4-14.2 14.2 0 8 6.3 14.4 14.3 14.4z" class="st0"/>
    <path d="M418 115.2c-9.5 0-20.3-4.8-22.8-15.4l-.1-.6h13.3l.1.3c1.9 4.1 6.6 5.5 10.1 5.5 3.7 0 7.3-1.6 9.5-4.1 2.9-3.4 3.1-6.3 3.1-10.5v-.1c-3.3 4.4-8.2 6.7-14.5 6.7-13.3 0-24.2-11.1-24.2-24.7 0-13.3 11.1-24.6 24.2-24.6 6.5 0 11.7 2.3 15.1 6.6v-5.8h16.9v11h-6v30.1c0 7.1-.4 12.9-6 18.5-4.9 4.6-11.4 7.1-18.7 7.1zm-21.7-15c2.7 9.7 12.8 14 21.7 14 7.1 0 13.3-2.4 18-7 5.3-5.3 5.7-10.9 5.7-17.8V58.3h6v-9h-14.9v8l-.9-1.4c-3.9-6.1-10.4-7.4-15.2-7.4-12.6 0-23.2 10.8-23.2 23.6 0 13.1 10.4 23.7 23.2 23.7 6.6 0 11.5-2.5 14.6-7.6l.9-1.5v3.5c0 4.4-.2 7.5-3.4 11.2-2.4 2.8-6.3 4.5-10.3 4.5-3.7 0-8.7-1.5-10.8-5.8h-11.4zm21.9-13.3c-8.3 0-14.8-6.5-14.8-14.9 0-8.1 6.6-14.7 14.7-14.7 8.2 0 14.8 6.6 14.8 14.6 0 8.5-6.4 15-14.7 15zm-.1-28.5c-7.6 0-13.7 6.1-13.7 13.7 0 7.8 6.1 13.9 13.8 13.9 7.7 0 13.7-6.1 13.7-14 0-7.5-6.2-13.6-13.8-13.6z" class="st2"/>
    <path d="M465.4 55.9c3-5.3 8-8.1 14-8.1 5.4 0 10.1 2.5 13.2 6.8 3.5 4.7 3.9 9.3 3.9 14.9v16.1h6v10h-22.8v-10h6V72.4c0-3.4.3-6.8-1.6-9.8-1.9-3-5.1-4.3-8.5-4.3-3.2 0-6.1 1.3-8.1 3.8-2.4 2.9-2.3 5.9-2.3 9.4v14.2h6v10h-22.8v-10h6V43.1h-6v-10h16.7v22.8z" class="st0"/>
    <path d="M503 96.1h-23.8v-11h6V71.2c0-3 0-5.9-1.5-8.4-1.7-2.6-4.6-4.1-8.1-4.1-3.1 0-5.9 1.3-7.7 3.6-2.2 2.7-2.2 5.3-2.2 8.7v14.1h6v11h-23.8v-11h6V43.6h-6v-11h17.7v21.6c3.1-4.4 7.8-6.8 13.5-6.8 5.5 0 10.3 2.5 13.6 7 3.7 4.9 4 9.8 4 15.2v15.6h6v10.9zm-22.8-1H502v-9h-6V69.5c0-5.4-.3-9.9-3.8-14.6-3.1-4.3-7.7-6.6-12.8-6.6-5.9 0-10.7 2.8-13.6 7.8l-.9 1.6V33.6h-15.7v9h6v43.6h-6v9H471v-9h-6V71.1c0-3.4 0-6.4 2.4-9.3 2-2.5 5.1-4 8.4-4 3.9 0 7 1.6 8.9 4.5 1.7 2.8 1.7 5.9 1.7 9v14.8h-6v9z" class="st2"/>
    <path d="M519.7 85.7h8.5v10H509V58.8h-7.4v-10h7.4V33.1h10.7v15.8h8v10h-8v26.8z" class="st0"/>
    <path d="M528.7 96.1h-20.2V59.3h-7.4v-11h7.4V32.6h11.7v15.8h8v11h-8v25.8h8.5v10.9zm-19.2-1h18.2v-9h-8.5V58.3h8v-9h-8V33.6h-9.7v15.8h-7.4v9h7.4v36.7z" class="st2"/>
  </g>
</svg>
